<svg xmlns="http://www.w3.org/2000/svg" viewBox="0 0 64 64" width="64" height="64">
  <defs>
    <linearGradient id="g1" x1="0%" y1="0%" x2="100%" y2="100%">
      <stop offset="0%" style="stop-color:#667eea;stop-opacity:1" />
      <stop offset="100%" style="stop-color:#764ba2;stop-opacity:1" />
    </linearGradient>
    <linearGradient id="g2" x1="0%" y1="0%" x2="100%" y2="100%">
      <stop offset="0%" style="stop-color:#f093fb;stop-opacity:1" />
      <stop offset="100%" style="stop-color:#f5576c;stop-opacity:1" />
    </linearGradient>
  </defs>
  
  <!-- Background Circle -->
  <circle cx="32" cy="32" r="30" fill="url(#g1)"/>
  
  <!-- Mouse -->
  <path d="M 32 16 
           C 26 16 21 21 21 27 
           L 21 44 
           C 21 50 26 55 32 55 
           C 38 55 43 50 43 44 
           L 43 27 
           C 43 21 38 16 32 16 Z" 
        fill="#ffffff" 
        opacity="0.95"/>
  
  <!-- Mouse Line -->
  <line x1="32" y1="16" x2="32" y2="28" 
        stroke="url(#g1)" 
        stroke-width="2" 
        stroke-linecap="round"/>
  
  <!-- Scroll Wheel -->
  <rect x="29" y="19" width="6" height="12" rx="3" 
        fill="url(#g1)" 
        opacity="0.7"/>
  
  <!-- Click Effects -->
  <circle cx="47" cy="26" r="2.5" fill="url(#g2)" opacity="0.9"/>
  <circle cx="50" cy="35" r="2" fill="url(#g2)" opacity="0.8"/>
  <circle cx="48" cy="44" r="2.5" fill="url(#g2)" opacity="0.9"/>
  
  <circle cx="17" cy="28" r="2" fill="url(#g2)" opacity="0.8"/>
  <circle cx="14" cy="36" r="2.5" fill="url(#g2)" opacity="0.9"/>
  <circle cx="16" cy="44" r="2" fill="url(#g2)" opacity="0.8"/>
</svg>

